# xmcd
#
# Track frame offsets: 
#        150
#        18225
#        44470
#        69292
#        89100
#        114625
#        148105
#        166660
#        193932
#        213410
#        241285
#
# Disc length: 3493 seconds
#
# Revision: 5
# Processed by: cddbd v1.5PL3 Copyright (c) Steve Scherf et al.
# Submitted via: ExactAudioCopy v0.95a4
#
DISCID=9c0da30b
DTITLE=Robben Ford - Su p ern a tu ral
DYEAR=1999
DGENRE=Blues
TTITLE0=Let Me In
TTITLE1=Supernatural
TTITLE2=Nothing To Nobody
TTITLE3=Water For The Wicked
TTITLE4=Don't Lose Your Faith In Me
TTITLE5=Hey, Brother
TTITLE6=Deaf, Dumb, And Blind
TTITLE7=If
TTITLE8=When I Cry Today
TTITLE9=You Got Me Knockin'
TTITLE10=Lovin' Cup
EXTD=
EXTT0=
EXTT1=
EXTT2=
EXTT3=
EXTT4=
EXTT5=
EXTT6=
EXTT7=
EXTT8=
EXTT9=
EXTT10=
PLAYORDER=
